<svg xmlns="http://www.w3.org/2000/svg" xmlns:xlink="http://www.w3.org/1999/xlink" version="1.1" x="0px" y="0px" viewBox="0 0 24 22" style="enable-background:new 0 0 24 22;" xml:space="preserve"><g><polygon points="0.5,21 0,22 1,22 23,22 24,22 23.5,21  "></polygon><polygon points="19,10 16,10 16,16 13,16 13,10 9,10 5,10 0,20 1,20 23,20 24,20  "></polygon><path d="M14,10v5h1v-5V9h4.618H20c0.553,0,1-0.448,1-1V1c0-0.552-0.447-1-1-1H9C8.447,0,8,0.448,8,1v7c0,0.552,0.447,1,1,1h5V10z    M19.5,1C19.776,1,20,1.224,20,1.5C20,1.776,19.776,2,19.5,2C19.224,2,19,1.776,19,1.5C19,1.224,19.224,1,19.5,1z M19.5,7   C19.776,7,20,7.224,20,7.5C20,7.776,19.776,8,19.5,8C19.224,8,19,7.776,19,7.5C19,7.224,19.224,7,19.5,7z M11,3h7v1h-7V3z M9.5,8   C9.224,8,9,7.776,9,7.5C9,7.224,9.224,7,9.5,7C9.776,7,10,7.224,10,7.5C10,7.776,9.776,8,9.5,8z M9.5,2C9.224,2,9,1.776,9,1.5   C9,1.224,9.224,1,9.5,1C9.776,1,10,1.224,10,1.5C10,1.776,9.776,2,9.5,2z M11,6V5h7v1H11z"></path></g></svg>