<?xml version="1.0" encoding="utf-8"?>
<!-- Generator: Adobe Illustrator 19.2.1, SVG Export Plug-In . SVG Version: 6.00 Build 0)  -->
<svg version="1.1" id="Layer_2" xmlns="http://www.w3.org/2000/svg" xmlns:xlink="http://www.w3.org/1999/xlink" x="0px" y="0px"
	 viewBox="0 0 13.1 12" style="enable-background:new 0 0 13.1 12;" xml:space="preserve">
<style type="text/css">
	.st0{fill:#828487;stroke:#FFFFFF;stroke-width:0.5;stroke-miterlimit:10;}
</style>
<title>layer-stack-15</title>
<path class="st0" d="M12.8,8.5l-6.1,3.2c-0.1,0.1-0.1,0.1-0.2,0L0.3,8.5c-0.1-0.1-0.1-0.1,0-0.2l6.1-3.1c0.1-0.1,0.1-0.1,0.2,0
	l6.1,3.1C12.8,8.4,12.8,8.5,12.8,8.5z"/>
<path class="st0" d="M12.8,6.1L6.6,9.2c-0.1,0.1-0.1,0.1-0.2,0L0.3,6.1C0.3,6,0.3,6,0.3,5.9l6.1-3.1c0.1-0.1,0.1-0.1,0.2,0l6.1,3.1
	C12.8,5.9,12.8,6,12.8,6.1z"/>
<path class="st0" d="M12.8,3.6L6.7,6.8c-0.1,0.1-0.1,0.1-0.2,0L0.3,3.6c-0.1-0.1-0.1-0.1,0-0.2l6.1-3.1c0.1-0.1,0.1-0.1,0.2,0
	l6.1,3.1C12.8,3.5,12.8,3.6,12.8,3.6z"/>
</svg>
