<?xml version="1.0" encoding="utf-8"?>
<!-- Generator: Adobe Illustrator 25.0.0, SVG Export Plug-In . SVG Version: 6.00 Build 0)  -->
<svg version="1.1" id="Layer_1" focusable="false" xmlns="http://www.w3.org/2000/svg" xmlns:xlink="http://www.w3.org/1999/xlink"
	 x="0px" y="0px" width="496px" height="512px" viewBox="0 0 496 512" style="enable-background:new 0 0 496 512;"
	 xml:space="preserve">
<style type="text/css">
	.st0{fill:#FFFFFF;}
</style>
<path class="st0" d="M248,8C111,8,0,119,0,256s111,248,248,248s248-111,248-248S385,8,248,8z M408,223.5v6.9
	c0,5.9-3.3,11.2-8.6,13.9L384,252c-5,2.5-10.9,2.1-15.5-1l-18.2-12.1c-4-2.7-9-3.3-13.5-1.8l-2.6,0.9c-9.7,3.2-13.7,14.8-8,23.3
	l13.2,19.9c2.9,4.3,7.7,6.9,12.9,6.9h8.2c8.6,0,15.5,6.9,15.5,15.5v11.3c0,3.4-1.1,6.6-3.1,9.3l-18.7,25c-1.4,1.9-2.4,4.1-2.8,6.4
	l-4.3,22.8c-0.6,3.3-2.3,6.3-4.8,8.6c-9.5,8.7-17.9,18.5-25,29.2l-13,19.5c-5.1,7.7-13.8,12.4-23.1,12.4c-10.5,0-20.1-5.9-24.8-15.3
	c-5.5-11-8.3-23-8.3-35.3v-29.9c0-8.6-6.9-15.5-15.5-15.5h-25.9c-14.5,0-28.4-5.8-38.6-16c-10.2-10.2-16-24.1-16-38.6v-14.1
	c0-17.2,8.1-33.4,21.9-43.7l27.6-20.7c9.5-7.1,21-10.9,32.8-10.9h0.9c8.5,0,16.9,2,24.4,5.8l14.7,7.4c3.7,1.8,7.9,2.1,11.8,0.8
	l47.3-15.8c6.3-2.1,10.6-8,10.6-14.7c0-8.6-6.9-15.5-15.5-15.5h-10.1c-4.1,0-8-1.6-11-4.5l-6.9-6.9c-2.9-2.9-6.8-4.5-11-4.5h-90.1
	c-8.6,0-15.5-6.9-15.5-15.5v-4.4c0-7.1,4.8-13.3,11.7-15l14.4-3.6c3.7-0.9,7-3.2,9.1-6.4l8.1-12.1c2.9-4.3,7.7-6.9,12.9-6.9h24.2
	c8.6,0,15.5-6.9,15.5-15.5V58.8C359.2,71.6,422.9,131,441.9,208h-18.4C414.9,208,408,214.9,408,223.5z"/>
</svg>
